# xmcd
#
# Track frame offsets: 
#        150
#        29075
#        43942
#        71187
#        92085
#        112807
#        130182
#        150097
#        179025
#        202882
#        230237
#        252435
#        278437
#        313422
#
# Disc length: 4438 seconds
#
# Revision: 2
# Processed by: cddbd v1.5.2PL0 Copyright (c) Steve Scherf et al.
# Submitted via: ExactAudioCopy v0.99pb4
#
DISCID=cb11540e
DTITLE=Eric Clapton, Pete Townshend, Ronnie Wood, Steve Winwood - Eric
DTITLE=Clapton's Rainbow Concert (1995 remastered edition)
DYEAR=1995
DGENRE=Blues
TTITLE0=Layla (live)
TTITLE1=Badge (live)
TTITLE2=Blues Power (live)
TTITLE3=Roll It Over (live)
TTITLE4=Little Wing (live)
TTITLE5=Bottle Of Red Wine (live)
TTITLE6=After Midnight (live)
TTITLE7=Bell Bottom Blues (live)
TTITLE8=Presence Of The Lord (live)
TTITLE9=Tell The Truth (live)
TTITLE10=Pearly Queen (live)
TTITLE11=Key To The Highway (live)
TTITLE12=Let It Rain (live)
TTITLE13=Crossroads (live)
EXTD=YEAR: 1974
EXTT0=
EXTT1=
EXTT2=
EXTT3=
EXTT4=
EXTT5=
EXTT6=
EXTT7=
EXTT8=
EXTT9=
EXTT10=
EXTT11=
EXTT12=
EXTT13=
PLAYORDER=
